# xmcd
#
# Track frame offsets:
#	150
#	13289
#	29273
#	42590
#	54341
#	70474
#	81478
#	95514
#	109353
#	125180
#	138856
#	152579
#	167264
#	185473
#	198574
#	214397
#	230599
#	241509
#	260330
#	274076
#	287549
#	303310
#	315901
#
# Disc length: 4454 seconds
#
# Revision: 1
# Processed by: cddbd v1.5.2PL0 Copyright (c) Steve Scherf et al.
# Submitted via: EZCDAudioConverter 2.1.7.1
#
DISCID=4a116417
DTITLE=The Creation - Action Painting 2/2
DYEAR=2017
DGENRE=
TTITLE0=The Mark Four - Hurt Me If You Will
TTITLE1=The Mark Four - I'm Leaving
TTITLE2=The Mark Four - Work All Day (Sleep All Night)
TTITLE3=The Mark Four - Going Down Fast
TTITLE4=The Creation - How Does It Feel To Feel [US Version - New Stereo Mix]
TTITLE5=The Creation - Biff, Bang, Pow [New Stereo Mix]
TTITLE6=The Creation - For All That I Am [New Stereo Mix]
TTITLE7=The Creation - Can I Join Your Band [New Stereo Mix]
TTITLE8=The Creation - Through My Eyes [New Stereo Mix]
TTITLE9=The Creation - Tom Tom [New Stereo Mix]
TTITLE10=The Creation - Midway Down [New Stereo Mix]
TTITLE11=The Creation - Nightmares [New Stereo Mix]
TTITLE12=The Creation - Life Is Just Beginning [New Stereo Mix]
TTITLE13=The Creation - Painter Man [New Stereo Mix]
TTITLE14=The Creation - If I Stay Too Long [New Stereo Mix]
TTITLE15=The Creation - How Does It Feel To Feel [UK Version - New Stereo Mix]
TTITLE16=The Creation - Cool Jerk [New Stereo Mix]
TTITLE17=The Creation - Hey Joe [New Stereo Mix]
TTITLE18=The Creation - Like A Rolling Stone [New Stereo Mix]
TTITLE19=The Creation - Making Time [Backing Track - Take 1]
TTITLE20=The Creation - Sylvette [Full Length]
TTITLE21=The Creation - Instrumental 1
TTITLE22=The Creation - How Does It Feel To Feel [Version 1 - Backing Track]
EXTD=
EXTT0=
EXTT1=
EXTT2=
EXTT3=
EXTT4=
EXTT5=
EXTT6=
EXTT7=
EXTT8=
EXTT9=
EXTT10=
EXTT11=
EXTT12=
EXTT13=
EXTT14=
EXTT15=
EXTT16=
EXTT17=
EXTT18=
EXTT19=
EXTT20=
EXTT21=
EXTT22=
PLAYORDER=
